# xmcd
#
# Track frame offsets:
#	150
#	17765
#	31982
#	49462
#	67072
#	84970
#	95670
#	119257
#	132717
#	153950
#	174795
#	187120
#	200102
#	214097
#
# Disc length: 3002 seconds
#
# Revision: 0
# Processed by: cddbd v1.4PL0 Copyright (c) Steve Scherf et al.
# Submitted via: audiograbber 1.81.03
#
DISCID=cb0bb80e
DTITLE=Arc Light - a cold shot of the blues
DYEAR=1994
DGENRE=
TTITLE0=Colorado Boy
TTITLE1=Hurry up Joe
TTITLE2=Kidnapped by the Blues
TTITLE3=Hard Luck Survivor
TTITLE4=Your tears don't mean a thing
TTITLE5=Truckin' to the Strut
TTITLE6=Black Night
TTITLE7=Big Fat Mama
TTITLE8=Summertime
TTITLE9=Mr. Downtime
TTITLE10=Come Back Darling
TTITLE11=Innocent Plea
TTITLE12=Hoochie Coochie Man
TTITLE13=Mean Woman Blues
EXTD=
EXTT0=
EXTT1=
EXTT2=
EXTT3=
EXTT4=
EXTT5=
EXTT6=
EXTT7=
EXTT8=
EXTT9=
EXTT10=
EXTT11=
EXTT12=
EXTT13=
PLAYORDER=
